<svg xmlns="http://www.w3.org/2000/svg" xmlns:xlink="http://www.w3.org/1999/xlink" width="1024" zoomAndPan="magnify" viewBox="0 0 768 767.999994" height="1024" preserveAspectRatio="xMidYMid meet" version="1.0"><defs><clipPath id="366f164f3e"><path d="M 31 64 L 737 64 L 737 691.199219 L 31 691.199219 Z M 31 64 " clip-rule="nonzero"/></clipPath><clipPath id="04a232f2b1"><path d="M 421.285156 86.023438 L 730.714844 626.121094 C 738.421875 639.574219 738.382812 656.113281 730.609375 669.527344 C 722.832031 682.941406 708.503906 691.199219 693 691.199219 L 75 691.199219 C 59.496094 691.199219 45.167969 682.941406 37.390625 669.527344 C 29.617188 656.113281 29.578125 639.574219 37.285156 626.121094 L 346.714844 86.023438 C 354.375 72.65625 368.597656 64.414062 384 64.414062 C 399.402344 64.414062 413.625 72.65625 421.285156 86.023438 Z M 421.285156 86.023438 " clip-rule="nonzero"/></clipPath></defs><g clip-path="url(#366f164f3e)"><g clip-path="url(#04a232f2b1)"><path stroke-linecap="butt" transform="matrix(-0.75, 0, 0, -0.75, 767.999605, 691.199338)" fill="none" stroke-linejoin="miter" d="M 462.285955 806.90124 L 49.713017 86.770996 C 39.436975 68.833495 39.489059 46.781411 49.853642 28.895993 C 60.223435 11.010576 79.327602 0.000158733 99.999478 0.000158733 L 923.999519 0.000158733 C 944.671395 0.000158733 963.775563 11.010576 974.145355 28.895993 C 984.509939 46.781411 984.562022 68.833495 974.28598 86.770996 L 561.713043 806.90124 C 551.499501 824.724158 532.535958 835.713742 511.999499 835.713742 C 491.463039 835.713742 472.499497 824.724158 462.285955 806.90124 Z M 462.285955 806.90124 " stroke="#ffffff" stroke-width="200" stroke-opacity="1" stroke-miterlimit="4"/></g></g></svg>